<svg width="383" height="100" viewBox="0 0 383 100" fill="none" xmlns="http://www.w3.org/2000/svg">
<path fill-rule="evenodd" clip-rule="evenodd" d="M21.469 0C21.469 0 33.5207 0 41.243 0C48.9652 0 61.0169 0 61.0169 0V18.9266C47.4576 15.5367 41.243 9.60452 41.243 9.60452C41.243 9.60452 35.0283 15.5367 21.469 18.9266V0Z" fill="white"/>
<path fill-rule="evenodd" clip-rule="evenodd" d="M41.243 68.6885L41.1539 68.6888C33.6776 68.6888 27.6168 62.5981 27.6168 55.0847C27.6168 47.5714 33.6776 41.4807 41.1539 41.4807L41.2429 41.481C44.0524 41.4992 46.6587 42.3774 48.8143 43.8669L51.9462 40.6188C48.9618 38.3667 45.2578 37.0254 41.2429 37.0059L41.1539 37.0057C31.2183 37.0057 23.1638 45.0999 23.1638 55.0847C23.1638 65.0696 31.2183 73.1638 41.1539 73.1638L41.243 73.1636C51.1376 73.1154 59.1439 65.0397 59.1439 55.0847C59.1439 52.8951 58.7566 50.7965 58.047 48.8541L54.4617 52.5786C54.6122 53.3909 54.6909 54.2286 54.6909 55.0847C54.6909 62.5682 48.6783 68.6404 41.243 68.6885ZM61.0169 23.1638C47.4576 19.774 41.2429 13.8418 41.2429 13.8418C41.2429 13.8418 35.0283 19.774 21.469 23.1638C7.90965 26.5537 0 26.2712 0 26.2712C0 26.2712 -3.35276e-06 37.4553 3.9696 54.3785C6.25582 64.1251 9.85874 73.9014 15.5367 80.5085C31.0734 98.5876 41.243 100 41.243 100C41.243 100 51.4125 98.5876 66.9492 80.5085C72.682 73.8376 76.2995 63.9359 78.5822 54.096C82.4859 37.2685 82.4859 26.2712 82.4859 26.2712C82.4859 26.2712 74.5763 26.5537 61.0169 23.1638ZM55.8204 40.7726L41.243 55.8906L39.993 57.1869L34.5242 51.332C34.0642 50.8395 33.3112 50.8321 32.8425 51.3155L31.3573 52.8472C30.8886 53.3306 30.8815 54.1217 31.3416 54.6142L39.1226 62.9445C39.5857 63.4403 40.3447 63.444 40.8122 62.9528L41.243 62.5053L58.9737 44.086C59.4381 43.598 59.4381 42.8069 58.9737 42.3189L57.5022 40.7726C57.0378 40.2847 56.2848 40.2847 55.8204 40.7726Z" fill="white"/>
<path d="M368.478 58.9738V14.1406H377.014V58.9738H368.478Z" fill="white"/>
<path d="M318.638 58.9738V14.1406H328.341L347.38 44.2955V14.1406H355.917V58.9738H346.827L327.174 27.8362V58.9738H318.638Z" fill="white"/>
<path d="M262.447 58.9738V14.1406H270.923L284.373 32.8109L298.314 14.1406H306.359V58.9738H297.822V27.8976L284.311 46.138L270.984 28.0819V58.9738H262.447Z" fill="white"/>
<path d="M224.07 58.9738V14.1406H250.663V22.3089H232.607V32.381H250.663V40.5492H232.607V50.8055H250.663V58.9738H224.07Z" fill="white"/>
<path d="M177.116 58.9738V14.1406H189.338C204.507 14.1406 213.044 23.8442 213.044 36.5572C213.044 49.3316 203.402 58.9738 189.706 58.9738H177.116ZM188.355 22.0632H185.653V51.0512H188.724C198.427 51.0512 204.507 44.7868 204.507 36.5572C204.507 28.0819 199.349 22.0632 188.355 22.0632Z" fill="white"/>
<path d="M127.583 58.9738V14.1406H137.287L156.325 44.2955V14.1406H164.862V58.9738H155.773L136.12 27.8362V58.9738H127.583Z" fill="white"/>
<path d="M106.486 58.9738V14.1406H115.023V58.9738H106.486Z" fill="white"/>
<path d="M373.719 81.3678C371.915 81.3678 370.552 80.7729 369.573 79.6405L370.744 78.6041C371.531 79.5254 372.452 80.0628 373.796 80.0628C375.312 80.0628 376.099 79.3334 376.099 78.4506C376.099 77.395 374.717 77.1839 373.392 76.8768C371.857 76.5122 370.13 76.0324 370.13 74.1515C370.13 72.7121 371.473 71.3687 373.68 71.3687C375.235 71.3687 376.521 71.8485 377.423 72.8465L376.291 73.7677C375.638 73 374.87 72.6353 373.68 72.6353C372.299 72.6353 371.588 73.3071 371.588 74.1323C371.588 75.1111 372.702 75.2647 374.179 75.6293C375.772 75.994 377.557 76.493 377.557 78.4506C377.557 79.9092 376.291 81.3678 373.719 81.3678Z" fill="white"/>
<path d="M363.893 81.3677C360.957 81.3677 358.846 79.1414 358.846 76.3777C358.846 73.4988 361.053 71.3877 363.874 71.3877C365.966 71.3877 367.655 72.5584 368.365 74.2473L367.022 74.8231C366.427 73.4988 365.352 72.7312 363.855 72.7312C361.84 72.7312 360.343 74.3625 360.343 76.3777C360.343 78.3929 361.859 80.0242 363.932 80.0242C365.525 80.0242 366.561 79.0646 367.098 77.7979L368.461 78.3737C367.693 80.1202 366.177 81.3677 363.893 81.3677Z" fill="white"/>
<path d="M355.144 71.5796H356.641V81.1758H355.144V71.5796ZM354.722 68.4129C354.722 67.7412 355.24 67.2422 355.892 67.2422C356.583 67.2422 357.082 67.7412 357.082 68.4129C357.082 69.0846 356.583 69.6028 355.892 69.6028C355.201 69.6028 354.722 69.0846 354.722 68.4129Z" fill="white"/>
<path d="M347.538 72.9232V71.5797H349.189V69.315L350.686 68.4897V71.5797H352.95V72.9232H350.686V77.4909C350.686 79.4485 351.05 79.7748 352.95 79.7748V81.1758H352.739C349.937 81.1758 349.189 80.3698 349.189 77.5101V72.9232H347.538Z" fill="white"/>
<path d="M342.381 81.3678C340.577 81.3678 339.214 80.7729 338.235 79.6405L339.406 78.6041C340.193 79.5254 341.114 80.0628 342.458 80.0628C343.974 80.0628 344.761 79.3334 344.761 78.4506C344.761 77.395 343.379 77.1839 342.055 76.8768C340.519 76.5122 338.792 76.0324 338.792 74.1515C338.792 72.7121 340.135 71.3687 342.342 71.3687C343.897 71.3687 345.183 71.8485 346.085 72.8465L344.953 73.7677C344.3 73 343.532 72.6353 342.342 72.6353C340.961 72.6353 340.251 73.3071 340.251 74.1323C340.251 75.1111 341.364 75.2647 342.841 75.6293C344.434 75.994 346.219 76.493 346.219 78.4506C346.219 79.9092 344.953 81.3678 342.381 81.3678Z" fill="white"/>
<path d="M335.071 71.5796H336.568V81.1758H335.071V71.5796ZM334.648 68.4129C334.648 67.7412 335.167 67.2422 335.819 67.2422C336.51 67.2422 337.009 67.7412 337.009 68.4129C337.009 69.0846 336.51 69.6028 335.819 69.6028C335.128 69.6028 334.648 69.0846 334.648 68.4129Z" fill="white"/>
<path d="M327.474 81.3677C324.653 81.3677 322.561 79.1222 322.561 76.3777C322.561 73.6332 324.614 71.3877 327.474 71.3877C328.702 71.3877 330.18 72.021 331.005 73.1534V71.5796H332.483V81.003C332.483 83.9203 330.64 85.8587 327.742 85.8587C325.401 85.8587 323.923 84.8223 323.232 83.2101L324.691 82.7303C325.152 83.8243 326.111 84.5536 327.742 84.5536C329.834 84.5536 331.024 83.095 331.024 81.0414V79.5828C330.218 80.7343 328.721 81.3677 327.474 81.3677ZM327.551 80.0242C329.604 80.0242 331.139 78.3929 331.139 76.3777C331.139 74.3817 329.604 72.7312 327.551 72.7312C325.593 72.7312 324.058 74.3625 324.058 76.3777C324.058 78.3929 325.593 80.0242 327.551 80.0242Z" fill="white"/>
<path d="M315.63 81.3677C312.866 81.3677 310.659 79.199 310.659 76.3777C310.659 73.5564 312.866 71.3877 315.63 71.3877C318.394 71.3877 320.62 73.5564 320.62 76.3777C320.62 79.199 318.394 81.3677 315.63 81.3677ZM315.63 80.0242C317.588 80.0242 319.123 78.3929 319.123 76.3777C319.123 74.3625 317.588 72.7312 315.63 72.7312C313.672 72.7312 312.156 74.3625 312.156 76.3777C312.156 78.3929 313.672 80.0242 315.63 80.0242Z" fill="white"/>
<path d="M306.938 81.1759V67.1655H308.435V81.1759H306.938Z" fill="white"/>
<path d="M295.695 72.9232V71.5798H297.346V70.8313C297.346 67.9716 298.171 67.1655 300.992 67.1655H301.127V68.5282C299.092 68.5282 298.843 68.8928 298.843 70.8504V71.5798H301.127V72.9232H298.843V81.1759H297.346V72.9232H295.695Z" fill="white"/>
<path d="M289.446 81.3677C286.683 81.3677 284.476 79.199 284.476 76.3777C284.476 73.5564 286.683 71.3877 289.446 71.3877C292.21 71.3877 294.436 73.5564 294.436 76.3777C294.436 79.199 292.21 81.3677 289.446 81.3677ZM289.446 80.0242C291.404 80.0242 292.939 78.3929 292.939 76.3777C292.939 74.3625 291.404 72.7312 289.446 72.7312C287.489 72.7312 285.973 74.3625 285.973 76.3777C285.973 78.3929 287.489 80.0242 289.446 80.0242Z" fill="white"/>
<path d="M273.967 81.3677C270.916 81.3677 268.92 79.2757 268.92 76.4545C268.92 73.5756 271.012 71.3877 273.891 71.3877C276.654 71.3877 278.804 73.2877 278.804 76.2241V76.8575H270.359C270.551 78.7575 272.048 80.0434 273.967 80.0434C275.522 80.0434 276.616 79.2373 277.211 78.0666L278.497 78.7C277.614 80.3697 276.117 81.3677 273.967 81.3677ZM273.891 72.712C272.163 72.712 270.82 73.8827 270.436 75.4948H277.288C277.019 73.7675 275.752 72.712 273.891 72.712Z" fill="white"/>
<path d="M262.406 81.1757V71.5796H263.884V73.0766C264.46 72.117 265.477 71.5796 266.859 71.5796H267.742V72.9614H266.801C264.729 72.9614 263.903 73.9786 263.903 76.2049V81.1757H262.406Z" fill="white"/>
<path d="M255.082 81.3676C252.28 81.3676 250.841 79.6787 250.841 76.915V71.5796H252.338V76.915C252.338 78.7767 253.297 80.0242 255.217 80.0242C256.963 80.0242 258.249 78.6423 258.249 76.8958V71.5796H259.727V81.1757H258.268V79.7555C257.597 80.7343 256.464 81.3676 255.082 81.3676Z" fill="white"/>
<path d="M243.273 72.9232V71.5797H244.924V69.315L246.421 68.4897V71.5797H248.686V72.9232H246.421V77.4909C246.421 79.4485 246.786 79.7748 248.686 79.7748V81.1758H248.475C245.672 81.1758 244.924 80.3698 244.924 77.5101V72.9232H243.273Z" fill="white"/>
<path d="M236.696 81.3676C233.894 81.3676 232.454 79.6787 232.454 76.915V71.5796H233.951V76.915C233.951 78.7767 234.911 80.0242 236.83 80.0242C238.576 80.0242 239.862 78.6423 239.862 76.8958V71.5796H241.34V81.1757H239.882V79.7555C239.21 80.7343 238.077 81.3676 236.696 81.3676Z" fill="white"/>
<path d="M225.168 72.9232V71.5798H226.819V70.8313C226.819 67.9716 227.644 67.1655 230.465 67.1655H230.599V68.5282C228.565 68.5282 228.316 68.8928 228.316 70.8504V71.5798H230.599V72.9232H228.316V81.1759H226.819V72.9232H225.168Z" fill="white"/>
<path d="M214.966 81.3677C211.914 81.3677 209.918 79.2757 209.918 76.4545C209.918 73.5756 212.01 71.3877 214.889 71.3877C217.652 71.3877 219.802 73.2877 219.802 76.2241V76.8575H211.357C211.549 78.7575 213.046 80.0434 214.966 80.0434C216.52 80.0434 217.614 79.2373 218.209 78.0666L219.495 78.7C218.612 80.3697 217.115 81.3677 214.966 81.3677ZM214.889 72.712C213.161 72.712 211.818 73.8827 211.434 75.4948H218.286C218.017 73.7675 216.75 72.712 214.889 72.712Z" fill="white"/>
<path d="M198.851 81.1759V67.1655H200.309V72.9808C200.981 72.0212 202.132 71.3878 203.572 71.3878C206.144 71.3878 207.737 73.0767 207.737 75.8404V81.1759H206.24V75.8404C206.24 73.9788 205.28 72.7313 203.361 72.7313C201.614 72.7313 200.328 74.1131 200.328 75.8596V81.1759H198.851Z" fill="white"/>
<path d="M191.226 72.9232V71.5797H192.876V69.315L194.373 68.4897V71.5797H196.638V72.9232H194.373V77.4909C194.373 79.4485 194.738 79.7748 196.638 79.7748V81.1758H196.427C193.625 81.1758 192.876 80.3698 192.876 77.5101V72.9232H191.226Z" fill="white"/>
<path d="M180.458 81.3677C177.637 81.3677 175.545 79.1222 175.545 76.3777C175.545 73.6332 177.598 71.3877 180.458 71.3877C181.686 71.3877 183.164 72.021 183.99 73.1534V71.5796H185.467V81.003C185.467 83.9203 183.625 85.8587 180.727 85.8587C178.385 85.8587 176.908 84.8223 176.217 83.2101L177.675 82.7303C178.136 83.8243 179.095 84.5536 180.727 84.5536C182.819 84.5536 184.009 83.095 184.009 81.0414V79.5828C183.203 80.7343 181.706 81.3677 180.458 81.3677ZM180.535 80.0242C182.588 80.0242 184.124 78.3929 184.124 76.3777C184.124 74.3817 182.588 72.7312 180.535 72.7312C178.577 72.7312 177.042 74.3625 177.042 76.3777C177.042 78.3929 178.577 80.0242 180.535 80.0242Z" fill="white"/>
<path d="M164.495 81.1758V71.5796H165.954V72.9998C166.625 72.021 167.777 71.3877 169.216 71.3877C171.788 71.3877 173.381 73.0766 173.381 75.8403V81.1758H171.884V75.8403C171.884 73.9787 170.925 72.7312 169.005 72.7312C167.259 72.7312 165.973 74.113 165.973 75.8595V81.1758H164.495Z" fill="white"/>
<path d="M160.428 71.5796H161.925V81.1758H160.428V71.5796ZM160.006 68.4129C160.006 67.7412 160.524 67.2422 161.177 67.2422C161.868 67.2422 162.367 67.7412 162.367 68.4129C162.367 69.0846 161.868 69.6028 161.177 69.6028C160.486 69.6028 160.006 69.0846 160.006 68.4129Z" fill="white"/>
<path d="M152.969 81.1757V71.5796H154.447V73.0766C155.022 72.117 156.04 71.5796 157.421 71.5796H158.304V72.9614H157.364C155.291 72.9614 154.466 73.9786 154.466 76.2049V81.1757H152.969Z" fill="white"/>
<path d="M145.645 81.3676C142.843 81.3676 141.403 79.6787 141.403 76.915V71.5796H142.9V76.915C142.9 78.7767 143.86 80.0242 145.779 80.0242C147.526 80.0242 148.812 78.6423 148.812 76.8958V71.5796H150.289V81.1757H148.831V79.7555C148.159 80.7343 147.027 81.3676 145.645 81.3676Z" fill="white"/>
<path d="M134.861 81.3677C131.925 81.3677 129.813 79.1414 129.813 76.3777C129.813 73.4988 132.021 71.3877 134.842 71.3877C136.934 71.3877 138.623 72.5584 139.333 74.2473L137.989 74.8231C137.394 73.4988 136.32 72.7312 134.823 72.7312C132.807 72.7312 131.31 74.3625 131.31 76.3777C131.31 78.3929 132.827 80.0242 134.899 80.0242C136.492 80.0242 137.529 79.0646 138.066 77.7979L139.429 78.3737C138.661 80.1202 137.145 81.3677 134.861 81.3677Z" fill="white"/>
<path d="M123.109 81.3677C120.058 81.3677 118.062 79.2757 118.062 76.4545C118.062 73.5756 120.153 71.3877 123.032 71.3877C125.796 71.3877 127.946 73.2877 127.946 76.2241V76.8575H119.501C119.693 78.7575 121.19 80.0434 123.109 80.0434C124.664 80.0434 125.758 79.2373 126.353 78.0666L127.638 78.7C126.756 80.3697 125.259 81.3677 123.109 81.3677ZM123.032 72.712C121.305 72.712 119.962 73.8827 119.578 75.4948H126.429C126.161 73.7675 124.894 72.712 123.032 72.712Z" fill="white"/>
<path d="M111.438 81.3678C109.173 81.3678 107.619 80.4082 106.486 78.7961L107.753 77.8365C108.693 79.2951 109.845 80.0052 111.438 80.0052C113.184 80.0052 114.413 78.892 114.413 77.3567C114.413 75.6293 112.743 75.092 110.997 74.497C109.077 73.8445 107.081 73.0384 107.081 70.601C107.081 68.5666 108.924 66.9736 111.38 66.9736C113.357 66.9736 114.701 67.7605 115.718 69.0848L114.528 69.9676C113.818 68.8545 112.781 68.2979 111.361 68.2979C109.787 68.2979 108.597 69.2959 108.597 70.601C108.597 72.2131 110.21 72.7313 111.937 73.3263C113.875 73.998 115.929 74.8041 115.929 77.3567C115.929 79.4294 114.144 81.3678 111.438 81.3678Z" fill="white"/>
</svg>
