<svg width="383" height="100" viewBox="0 0 383 100" fill="none" xmlns="http://www.w3.org/2000/svg">
<path d="M41.243 100L41.2429 13.8418C41.2429 13.8418 35.0283 19.774 21.469 23.1638C7.90965 26.5537 0 26.2712 0 26.2712C0 26.2712 -3.50219e-06 37.4553 3.9696 54.3785C6.25582 64.1251 9.85875 73.9014 15.5367 80.5085C31.0734 98.5876 41.243 100 41.243 100Z" fill="url(#paint0_linear_5_594)"/>
<path d="M41.243 100C41.243 100 51.4125 98.5876 66.9492 80.5085C72.682 73.8375 76.2995 63.9359 78.5822 54.096C82.4859 37.2685 82.4859 26.2712 82.4859 26.2712C82.4859 26.2712 74.5763 26.5537 61.0169 23.1638C47.4576 19.774 41.2429 13.8418 41.2429 13.8418L41.243 100Z" fill="url(#paint1_linear_5_594)"/>
<path fill-rule="evenodd" clip-rule="evenodd" d="M58.9737 42.3189C59.4381 42.8069 59.4381 43.598 58.9737 44.086L40.8122 62.9528C40.3447 63.444 39.5857 63.4403 39.1226 62.9445L31.3416 54.6142C30.8815 54.1217 30.8886 53.3306 31.3573 52.8472L32.8425 51.3155C33.3112 50.8321 34.0642 50.8395 34.5242 51.332L39.993 57.1869L55.8204 40.7726C56.2848 40.2847 57.0378 40.2847 57.5022 40.7726L58.9737 42.3189Z" fill="white"/>
<path fill-rule="evenodd" clip-rule="evenodd" d="M54.6909 55.0847C54.6909 62.5981 48.6302 68.6888 41.1539 68.6888C33.6776 68.6888 27.6168 62.5981 27.6168 55.0847C27.6168 47.5714 33.6776 41.4807 41.1539 41.4807C43.9973 41.4807 46.6359 42.3617 48.8143 43.8669L51.9462 40.6188C48.9398 38.35 45.203 37.0056 41.1539 37.0056C31.2183 37.0056 23.1638 45.0999 23.1638 55.0847C23.1638 65.0696 31.2183 73.1638 41.1539 73.1638C51.0895 73.1638 59.1439 65.0696 59.1439 55.0847C59.1439 52.8951 58.7566 50.7965 58.047 48.8541L54.4617 52.5786C54.6122 53.3909 54.6909 54.2286 54.6909 55.0847Z" fill="white"/>
<path fill-rule="evenodd" clip-rule="evenodd" d="M21.469 0C21.469 0 33.5207 0 41.243 0C48.9652 0 61.0169 0 61.0169 0V18.9266C47.4576 15.5367 41.243 9.60452 41.243 9.60452C41.243 9.60452 35.0283 15.5367 21.469 18.9266V0Z" fill="url(#paint2_linear_5_594)"/>
<path d="M368.478 58.974V14.1409H377.014V58.974H368.478Z" fill="black"/>
<path d="M318.638 58.974V14.1409H328.341L347.38 44.2958V14.1409H355.917V58.974H346.827L327.174 27.8365V58.974H318.638Z" fill="black"/>
<path d="M262.447 58.974V14.1409H270.923L284.373 32.8111L298.314 14.1409H306.359V58.974H297.822V27.8979L284.311 46.1382L270.984 28.0821V58.974H262.447Z" fill="black"/>
<path d="M224.07 58.974V14.1409H250.663V22.3091H232.607V32.3812H250.663V40.5494H232.607V50.8058H250.663V58.974H224.07Z" fill="black"/>
<path d="M177.116 58.974V14.1409H189.338C204.507 14.1409 213.044 23.8445 213.044 36.5574C213.044 49.3318 203.402 58.974 189.706 58.974H177.116ZM188.355 22.0634H185.653V51.0514H188.724C198.427 51.0514 204.507 44.7871 204.507 36.5574C204.507 28.0821 199.349 22.0634 188.355 22.0634Z" fill="black"/>
<path d="M127.583 58.974V14.1409H137.287L156.325 44.2958V14.1409H164.862V58.974H155.773L136.12 27.8365V58.974H127.583Z" fill="black"/>
<path d="M106.486 58.974V14.1409H115.023V58.974H106.486Z" fill="black"/>
<path d="M373.719 81.3683C371.915 81.3683 370.552 80.7734 369.573 79.641L370.744 78.6046C371.531 79.5259 372.452 80.0632 373.796 80.0632C375.312 80.0632 376.099 79.3339 376.099 78.4511C376.099 77.3955 374.717 77.1844 373.392 76.8773C371.857 76.5127 370.13 76.0329 370.13 74.152C370.13 72.7126 371.473 71.3691 373.68 71.3691C375.235 71.3691 376.521 71.8489 377.423 72.8469L376.291 73.7682C375.638 73.0005 374.87 72.6358 373.68 72.6358C372.299 72.6358 371.588 73.3076 371.588 74.1328C371.588 75.1116 372.702 75.2652 374.179 75.6298C375.772 75.9945 377.557 76.4935 377.557 78.4511C377.557 79.9097 376.291 81.3683 373.719 81.3683Z" fill="black"/>
<path d="M363.893 81.3684C360.957 81.3684 358.846 79.1421 358.846 76.3784C358.846 73.4996 361.053 71.3884 363.874 71.3884C365.966 71.3884 367.655 72.5592 368.365 74.2481L367.022 74.8238C366.427 73.4996 365.352 72.7319 363.855 72.7319C361.84 72.7319 360.343 74.3632 360.343 76.3784C360.343 78.3936 361.859 80.025 363.932 80.025C365.525 80.025 366.561 79.0653 367.098 77.7986L368.461 78.3744C367.693 80.1209 366.177 81.3684 363.893 81.3684Z" fill="black"/>
<path d="M355.144 71.5804H356.641V81.1765H355.144V71.5804ZM354.722 68.4136C354.722 67.7419 355.24 67.2429 355.892 67.2429C356.583 67.2429 357.082 67.7419 357.082 68.4136C357.082 69.0854 356.583 69.6036 355.892 69.6036C355.201 69.6036 354.722 69.0854 354.722 68.4136Z" fill="black"/>
<path d="M347.538 72.9236V71.5802H349.189V69.3155L350.686 68.4902V71.5802H352.95V72.9236H350.686V77.4914C350.686 79.449 351.05 79.7753 352.95 79.7753V81.1763H352.739C349.937 81.1763 349.189 80.3702 349.189 77.5106V72.9236H347.538Z" fill="black"/>
<path d="M342.381 81.3683C340.577 81.3683 339.214 80.7734 338.235 79.641L339.406 78.6046C340.193 79.5259 341.114 80.0632 342.458 80.0632C343.974 80.0632 344.761 79.3339 344.761 78.4511C344.761 77.3955 343.379 77.1844 342.055 76.8773C340.519 76.5127 338.792 76.0329 338.792 74.152C338.792 72.7126 340.135 71.3691 342.342 71.3691C343.897 71.3691 345.183 71.8489 346.085 72.8469L344.953 73.7682C344.3 73.0005 343.532 72.6358 342.342 72.6358C340.961 72.6358 340.251 73.3076 340.251 74.1328C340.251 75.1116 341.364 75.2652 342.841 75.6298C344.434 75.9945 346.219 76.4935 346.219 78.4511C346.219 79.9097 344.953 81.3683 342.381 81.3683Z" fill="black"/>
<path d="M335.071 71.5804H336.568V81.1765H335.071V71.5804ZM334.648 68.4136C334.648 67.7419 335.167 67.2429 335.819 67.2429C336.51 67.2429 337.009 67.7419 337.009 68.4136C337.009 69.0854 336.51 69.6036 335.819 69.6036C335.128 69.6036 334.648 69.0854 334.648 68.4136Z" fill="black"/>
<path d="M327.474 81.3684C324.653 81.3684 322.561 79.1229 322.561 76.3784C322.561 73.6339 324.614 71.3884 327.474 71.3884C328.702 71.3884 330.18 72.0218 331.005 73.1541V71.5804H332.483V81.0038C332.483 83.921 330.64 85.8594 327.742 85.8594C325.401 85.8594 323.923 84.823 323.232 83.2109L324.691 82.7311C325.152 83.825 326.111 84.5543 327.742 84.5543C329.834 84.5543 331.024 83.0957 331.024 81.0421V79.5835C330.218 80.7351 328.721 81.3684 327.474 81.3684ZM327.551 80.025C329.604 80.025 331.139 78.3936 331.139 76.3784C331.139 74.3824 329.604 72.7319 327.551 72.7319C325.593 72.7319 324.058 74.3632 324.058 76.3784C324.058 78.3936 325.593 80.025 327.551 80.025Z" fill="black"/>
<path d="M315.63 81.3684C312.866 81.3684 310.659 79.1997 310.659 76.3784C310.659 73.5572 312.866 71.3884 315.63 71.3884C318.394 71.3884 320.62 73.5572 320.62 76.3784C320.62 79.1997 318.394 81.3684 315.63 81.3684ZM315.63 80.025C317.588 80.025 319.123 78.3936 319.123 76.3784C319.123 74.3632 317.588 72.7319 315.63 72.7319C313.672 72.7319 312.156 74.3632 312.156 76.3784C312.156 78.3936 313.672 80.025 315.63 80.025Z" fill="black"/>
<path d="M306.938 81.1764V67.166H308.435V81.1764H306.938Z" fill="black"/>
<path d="M295.695 72.9237V71.5802H297.346V70.8317C297.346 67.9721 298.171 67.166 300.992 67.166H301.127V68.5287C299.092 68.5287 298.843 68.8933 298.843 70.8509V71.5802H301.127V72.9237H298.843V81.1764H297.346V72.9237H295.695Z" fill="black"/>
<path d="M289.446 81.3684C286.683 81.3684 284.476 79.1997 284.476 76.3784C284.476 73.5572 286.683 71.3884 289.446 71.3884C292.21 71.3884 294.436 73.5572 294.436 76.3784C294.436 79.1997 292.21 81.3684 289.446 81.3684ZM289.446 80.025C291.404 80.025 292.939 78.3936 292.939 76.3784C292.939 74.3632 291.404 72.7319 289.446 72.7319C287.489 72.7319 285.973 74.3632 285.973 76.3784C285.973 78.3936 287.489 80.025 289.446 80.025Z" fill="black"/>
<path d="M273.967 81.3684C270.916 81.3684 268.92 79.2765 268.92 76.4552C268.92 73.5763 271.012 71.3884 273.891 71.3884C276.654 71.3884 278.804 73.2885 278.804 76.2249V76.8582H270.359C270.551 78.7583 272.048 80.0441 273.967 80.0441C275.522 80.0441 276.616 79.2381 277.211 78.0673L278.497 78.7007C277.614 80.3704 276.117 81.3684 273.967 81.3684ZM273.891 72.7127C272.163 72.7127 270.82 73.8834 270.436 75.4956H277.288C277.019 73.7683 275.752 72.7127 273.891 72.7127Z" fill="black"/>
<path d="M262.406 81.1765V71.5803H263.884V73.0773C264.46 72.1177 265.477 71.5803 266.859 71.5803H267.742V72.9622H266.801C264.729 72.9622 263.903 73.9794 263.903 76.2057V81.1765H262.406Z" fill="black"/>
<path d="M255.082 81.3684C252.28 81.3684 250.841 79.6795 250.841 76.9158V71.5803H252.338V76.9158C252.338 78.7774 253.297 80.0249 255.217 80.0249C256.963 80.0249 258.249 78.6431 258.249 76.8966V71.5803H259.727V81.1765H258.268V79.7562C257.597 80.735 256.464 81.3684 255.082 81.3684Z" fill="black"/>
<path d="M243.273 72.9236V71.5802H244.924V69.3155L246.421 68.4902V71.5802H248.686V72.9236H246.421V77.4914C246.421 79.449 246.786 79.7753 248.686 79.7753V81.1763H248.475C245.672 81.1763 244.924 80.3702 244.924 77.5106V72.9236H243.273Z" fill="black"/>
<path d="M236.696 81.3684C233.894 81.3684 232.454 79.6795 232.454 76.9158V71.5803H233.951V76.9158C233.951 78.7774 234.911 80.0249 236.83 80.0249C238.576 80.0249 239.862 78.6431 239.862 76.8966V71.5803H241.34V81.1765H239.882V79.7562C239.21 80.735 238.077 81.3684 236.696 81.3684Z" fill="black"/>
<path d="M225.168 72.9237V71.5802H226.819V70.8317C226.819 67.9721 227.644 67.166 230.465 67.166H230.599V68.5287C228.565 68.5287 228.316 68.8933 228.316 70.8509V71.5802H230.599V72.9237H228.316V81.1764H226.819V72.9237H225.168Z" fill="black"/>
<path d="M214.966 81.3684C211.914 81.3684 209.918 79.2765 209.918 76.4552C209.918 73.5763 212.01 71.3884 214.889 71.3884C217.652 71.3884 219.802 73.2885 219.802 76.2249V76.8582H211.357C211.549 78.7583 213.046 80.0441 214.966 80.0441C216.52 80.0441 217.614 79.2381 218.209 78.0673L219.495 78.7007C218.612 80.3704 217.115 81.3684 214.966 81.3684ZM214.889 72.7127C213.161 72.7127 211.818 73.8834 211.434 75.4956H218.286C218.017 73.7683 216.75 72.7127 214.889 72.7127Z" fill="black"/>
<path d="M198.851 81.1764V67.166H200.309V72.9813C200.981 72.0217 202.132 71.3883 203.572 71.3883C206.144 71.3883 207.737 73.0772 207.737 75.8409V81.1764H206.24V75.8409C206.24 73.9793 205.28 72.7318 203.361 72.7318C201.614 72.7318 200.328 74.1136 200.328 75.8601V81.1764H198.851Z" fill="black"/>
<path d="M191.226 72.9236V71.5802H192.876V69.3155L194.373 68.4902V71.5802H196.638V72.9236H194.373V77.4914C194.373 79.449 194.738 79.7753 196.638 79.7753V81.1763H196.427C193.625 81.1763 192.876 80.3702 192.876 77.5106V72.9236H191.226Z" fill="black"/>
<path d="M180.458 81.3684C177.637 81.3684 175.545 79.1229 175.545 76.3784C175.545 73.6339 177.598 71.3884 180.458 71.3884C181.686 71.3884 183.164 72.0218 183.99 73.1541V71.5804H185.467V81.0038C185.467 83.921 183.625 85.8594 180.727 85.8594C178.385 85.8594 176.908 84.823 176.217 83.2109L177.675 82.7311C178.136 83.825 179.095 84.5543 180.727 84.5543C182.819 84.5543 184.009 83.0957 184.009 81.0421V79.5835C183.203 80.7351 181.706 81.3684 180.458 81.3684ZM180.535 80.025C182.588 80.025 184.124 78.3936 184.124 76.3784C184.124 74.3824 182.588 72.7319 180.535 72.7319C178.577 72.7319 177.042 74.3632 177.042 76.3784C177.042 78.3936 178.577 80.025 180.535 80.025Z" fill="black"/>
<path d="M164.495 81.1765V71.5804H165.954V73.0006C166.625 72.0218 167.777 71.3884 169.216 71.3884C171.788 71.3884 173.381 73.0773 173.381 75.841V81.1765H171.884V75.841C171.884 73.9794 170.925 72.7319 169.005 72.7319C167.259 72.7319 165.973 74.1137 165.973 75.8602V81.1765H164.495Z" fill="black"/>
<path d="M160.428 71.5804H161.925V81.1765H160.428V71.5804ZM160.006 68.4136C160.006 67.7419 160.524 67.2429 161.177 67.2429C161.868 67.2429 162.367 67.7419 162.367 68.4136C162.367 69.0854 161.868 69.6036 161.177 69.6036C160.486 69.6036 160.006 69.0854 160.006 68.4136Z" fill="black"/>
<path d="M152.969 81.1765V71.5803H154.447V73.0773C155.022 72.1177 156.04 71.5803 157.421 71.5803H158.304V72.9622H157.364C155.291 72.9622 154.466 73.9794 154.466 76.2057V81.1765H152.969Z" fill="black"/>
<path d="M145.645 81.3684C142.843 81.3684 141.403 79.6795 141.403 76.9158V71.5803H142.9V76.9158C142.9 78.7774 143.86 80.0249 145.779 80.0249C147.526 80.0249 148.812 78.6431 148.812 76.8966V71.5803H150.289V81.1765H148.831V79.7562C148.159 80.735 147.027 81.3684 145.645 81.3684Z" fill="black"/>
<path d="M134.861 81.3684C131.925 81.3684 129.813 79.1421 129.813 76.3784C129.813 73.4996 132.021 71.3884 134.842 71.3884C136.934 71.3884 138.623 72.5592 139.333 74.2481L137.989 74.8238C137.394 73.4996 136.32 72.7319 134.823 72.7319C132.807 72.7319 131.31 74.3632 131.31 76.3784C131.31 78.3936 132.827 80.025 134.899 80.025C136.492 80.025 137.529 79.0653 138.066 77.7986L139.429 78.3744C138.661 80.1209 137.145 81.3684 134.861 81.3684Z" fill="black"/>
<path d="M123.109 81.3684C120.058 81.3684 118.062 79.2765 118.062 76.4552C118.062 73.5763 120.153 71.3884 123.032 71.3884C125.796 71.3884 127.946 73.2885 127.946 76.2249V76.8582H119.501C119.693 78.7583 121.19 80.0441 123.109 80.0441C124.664 80.0441 125.758 79.2381 126.353 78.0673L127.638 78.7007C126.756 80.3704 125.259 81.3684 123.109 81.3684ZM123.032 72.7127C121.305 72.7127 119.962 73.8834 119.578 75.4956H126.429C126.161 73.7683 124.894 72.7127 123.032 72.7127Z" fill="black"/>
<path d="M111.438 81.3683C109.173 81.3683 107.619 80.4087 106.486 78.7966L107.753 77.8369C108.693 79.2956 109.845 80.0057 111.438 80.0057C113.184 80.0057 114.413 78.8925 114.413 77.3571C114.413 75.6298 112.743 75.0925 110.997 74.4975C109.077 73.845 107.081 73.0389 107.081 70.6015C107.081 68.5671 108.924 66.9741 111.38 66.9741C113.357 66.9741 114.701 67.761 115.718 69.0853L114.528 69.9681C113.818 68.855 112.781 68.2984 111.361 68.2984C109.787 68.2984 108.597 69.2964 108.597 70.6015C108.597 72.2136 110.21 72.7318 111.937 73.3268C113.875 73.9985 115.929 74.8046 115.929 77.3571C115.929 79.4299 114.144 81.3683 111.438 81.3683Z" fill="black"/>
<defs>
<linearGradient id="paint0_linear_5_594" x1="2.87946e-07" y1="7.66871" x2="47.0272" y2="96.9534" gradientUnits="userSpaceOnUse">
<stop/>
<stop offset="1" stop-color="#143560"/>
</linearGradient>
<linearGradient id="paint1_linear_5_594" x1="41.243" y1="2.24362e-06" x2="84.9053" y2="69.2649" gradientUnits="userSpaceOnUse">
<stop stop-color="#143560"/>
<stop offset="1" stop-color="#119DA4"/>
</linearGradient>
<linearGradient id="paint2_linear_5_594" x1="2.87946e-07" y1="7.66871" x2="47.0272" y2="96.9534" gradientUnits="userSpaceOnUse">
<stop/>
<stop offset="1" stop-color="#143560"/>
</linearGradient>
</defs>
</svg>
